USFL
nRows=232
nColumns=2
inDegrees=yes
endheader
time	tib_ant_r	
3.26008	 58.961987	
3.29335	 58.985286	
3.32661	 58.982636	
3.35988	 58.979983	
3.39315	 58.984176	
3.42641	 58.984967	
3.45968	 58.979665	
3.49294	 58.972894	
3.52621	 58.966220	
3.55948	 58.957715	
3.59274	 58.935170	
3.62601	 58.928607	
3.65927	 58.959872	
3.69254	 58.965638	
3.72581	 58.961762	
3.75907	 58.949464	
3.79234	 58.952594	
3.8256	 58.955695	
3.85887	 58.956171	
3.89214	 58.964086	
3.9254	 58.962097	
3.95867	 58.967090	
3.99194	 58.949011	
4.0252	 58.969207	
4.05847	 58.969591	
4.09173	 58.981655	
4.125	 59.019805	
4.15827	 59.018343	
4.19153	 59.012931	
4.2248	 58.996449	
4.25806	 58.992993	
4.29133	 59.004198	
4.3246	 59.016994	
4.35786	 59.038449	
4.39113	 59.063498	
4.4244	 59.054493	
4.45766	 59.066860	
4.49093	 59.064702	
4.52419	 59.066528	
4.55746	 59.045762	
4.59073	 59.019843	
4.62399	 59.003391	
4.65726	 58.997640	
4.69052	 58.973938	
4.72379	 58.995181	
4.75706	 59.011413	
4.79032	 59.013453	
4.82359	 58.995309	
4.85685	 59.022471	
4.89012	 59.076477	
4.92339	 59.122120	
4.95665	 59.166411	
4.98992	 59.170821	
5.02319	 59.164037	
5.05645	 59.084539	
5.08972	 59.049868	
5.12298	 59.021094	
5.15625	 59.020341	
5.18952	 59.039349	
5.22278	 58.973283	
5.25605	 58.923457	
5.28931	 58.786857	
5.32258	 58.603127	
5.35585	 58.454461	
5.38911	 58.160368	
5.42238	 57.600377	
5.45565	 57.308727	
5.48891	 56.925548	
5.52218	 56.777943	
5.55544	 56.511600	
5.58871	 56.204321	
5.62198	 55.966942	
5.65524	 55.648344	
5.68851	 55.384580	
5.72177	 55.103398	
5.75504	 54.716572	
5.78831	 54.265055	
5.82157	 53.829692	
5.85484	 53.487364	
5.8881	 53.375353	
5.92137	 53.017231	
5.95464	 52.592015	
5.9879	 52.382066	
6.02117	 52.138396	
6.05444	 51.828855	
6.0877	 51.589381	
6.12097	 51.380157	
6.15423	 51.206776	
6.1875	 50.917550	
6.22077	 50.702066	
6.25403	 50.496401	
6.2873	 50.361482	
6.32056	 50.061658	
6.35383	 49.856786	
6.3871	 49.606561	
6.42036	 49.398558	
6.45363	 49.182067	
6.4869	 48.900606	
6.52016	 48.468834	
6.55343	 48.242818	
6.58669	 48.035379	
6.61996	 47.928819	
6.65323	 47.733475	
6.68649	 47.589719	
6.71976	 47.553499	
6.75302	 47.624625	
6.78629	 47.521208	
6.81956	 47.624552	
6.85282	 47.848130	
6.88609	 47.829295	
6.91935	 47.694295	
6.95262	 47.431598	
6.98589	 46.485098	
7.01915	 46.393794	
7.05242	 46.280705	
7.08569	 46.263535	
7.11895	 46.259764	
7.15222	 46.236908	
7.18548	 46.188010	
7.21875	 46.296012	
7.25202	 46.301093	
7.28528	 46.221636	
7.31855	 46.202791	
7.35181	 46.195212	
7.38508	 46.166086	
7.41835	 46.151496	
7.45161	 46.141709	
7.48488	 45.239290	
7.51815	 45.216279	
7.55141	 45.261626	
7.58468	 45.336406	
7.61794	 45.359707	
7.65121	 45.324792	
7.68448	 45.319273	
7.71774	 45.316127	
7.75101	 45.314047	
7.78427	 45.354752	
7.81754	 45.331450	
7.85081	 45.348253	
7.88407	 45.358329	
7.91734	 45.369587	
7.9506	 45.440540	
7.98387	 45.463460	
8.01714	 45.488902	
8.0504	 45.522174	
8.08367	 45.568048	
8.11694	 45.519065	
8.1502	 45.506331	
8.18347	 45.526308	
8.21673	 45.521186	
8.25	 45.489868	
8.28327	 45.517590	
8.31653	 45.447535	
8.3498	 45.455934	
8.38306	 45.443398	
8.41633	 45.460591	
8.4496	 45.468465	
8.48286	 45.429474	
8.51613	 45.398629	
8.5494	 45.369067	
8.58266	 45.414204	
8.61593	 45.475632	
8.64919	 45.509575	
8.68246	 45.516414	
8.71573	 45.482600	
8.74899	 45.476724	
8.78226	 45.442143	
8.81552	 45.437203	
8.84879	 45.518952	
8.88206	 45.572618	
8.91532	 45.596768	
8.94859	 45.561384	
8.98185	 45.523210	
9.01512	 45.492205	
9.04839	 45.506190	
9.08165	 45.501846	
9.11492	 45.541153	
9.14819	 45.537697	
9.18145	 45.535339	
9.21472	 45.527483	
9.24798	 45.561065	
9.28125	 45.547128	
9.31452	 45.555212	
9.34778	 45.574380	
9.38105	 45.623988	
9.41431	 45.581602	
9.44758	 45.567614	
9.48085	 45.539612	
9.51411	 45.493077	
9.54738	 45.484584	
9.58065	 45.460986	
9.61391	 45.471070	
9.64718	 45.463218	
9.68044	 46.421473	
9.71371	 47.106807	
9.74698	 47.867881	
9.78024	 50.190167	
9.81351	 51.769534	
9.84677	 53.620032	
9.88004	 53.822169	
9.91331	 53.843486	
9.94657	 53.963270	
9.97984	 55.271494	
10.0131	 55.469591	
10.0464	 55.506339	
10.0796	 57.507918	
10.1129	 57.447047	
10.1462	 57.349660	
10.1794	 57.363150	
10.2127	 57.414192	
10.246	 57.600615	
10.2792	 57.786586	
10.3125	 57.647403	
10.3458	 57.475996	
10.379	 57.435788	
10.4123	 57.336280	
10.4456	 57.473540	
10.4788	 57.571765	
10.5121	 57.630069	
10.5454	 57.631614	
10.5786	 57.650609	
10.6119	 57.830099	
10.6452	 57.919752	
10.6784	 57.920342	
10.7117	 57.920850	
10.745	 57.956780	
10.7782	 57.946192	
10.8115	 58.007230	
10.8448	 58.029828	
10.878	 58.067338	
10.9113	 58.084952	
10.9446	 58.135169	
